<svg width="1027" height="240" viewBox="0 0 1027 240" fill="none" xmlns="http://www.w3.org/2000/svg">
<path d="M349.897 160.88L343.497 139.632H313.673L307.273 160.88H287.561L317.001 71.536H341.065L370.121 160.88H349.897ZM328.777 89.2H328.137L318.281 123.12H338.761L328.777 89.2Z" fill="#064A45"/>
<path d="M413.458 162.416C405.607 162.416 398.951 161.093 393.49 158.448C388.028 155.717 383.378 152.219 379.538 147.952L392.338 135.024C398.396 141.851 405.863 145.264 414.738 145.264C419.516 145.264 423.058 144.283 425.362 142.32C427.666 140.357 428.818 137.755 428.818 134.512C428.818 132.037 428.135 129.989 426.77 128.368C425.404 126.661 422.631 125.509 418.45 124.912L409.618 123.76C400.146 122.565 393.191 119.707 388.754 115.184C384.402 110.661 382.226 104.645 382.226 97.136C382.226 93.1253 382.994 89.456 384.53 86.128C386.066 82.8 388.242 79.9413 391.058 77.552C393.959 75.1627 397.458 73.328 401.554 72.048C405.735 70.6827 410.471 70 415.762 70C422.503 70 428.434 71.0667 433.554 73.2C438.674 75.3333 443.068 78.448 446.738 82.544L433.81 95.6C431.676 93.1253 429.074 91.12 426.002 89.584C423.015 87.9627 419.218 87.152 414.61 87.152C410.258 87.152 407.015 87.92 404.882 89.456C402.748 90.992 401.682 93.1253 401.682 95.856C401.682 98.928 402.492 101.147 404.114 102.512C405.82 103.877 408.551 104.859 412.306 105.456L421.138 106.864C430.354 108.315 437.18 111.173 441.618 115.44C446.055 119.621 448.274 125.595 448.274 133.36C448.274 137.627 447.506 141.552 445.97 145.136C444.434 148.72 442.172 151.792 439.186 154.352C436.284 156.912 432.658 158.917 428.306 160.368C423.954 161.733 419.004 162.416 413.458 162.416Z" fill="#064A45"/>
<path d="M462.997 160.88V145.392H474.517V87.024H462.997V71.536H505.493V87.024H493.973V145.392H505.493V160.88H462.997Z" fill="#064A45"/>
<path d="M559.847 162.416C553.788 162.416 548.327 161.477 543.463 159.6C538.599 157.637 534.46 154.779 531.047 151.024C527.633 147.184 524.988 142.448 523.111 136.816C521.233 131.099 520.295 124.443 520.295 116.848C520.295 109.339 521.233 102.683 523.111 96.88C524.988 90.992 527.633 86.0853 531.047 82.16C534.46 78.1493 538.599 75.12 543.463 73.072C548.327 71.024 553.788 70 559.847 70C568.124 70 574.951 71.7067 580.327 75.12C585.703 78.448 590.012 83.7387 593.255 90.992L576.487 99.696C575.292 95.9413 573.415 92.9547 570.855 90.736C568.38 88.432 564.711 87.28 559.847 87.28C554.129 87.28 549.521 89.1573 546.023 92.912C542.609 96.5813 540.903 101.957 540.903 109.04V123.376C540.903 130.459 542.609 135.877 546.023 139.632C549.521 143.301 554.129 145.136 559.847 145.136C564.625 145.136 568.423 143.856 571.239 141.296C574.14 138.651 576.273 135.493 577.639 131.824L593.511 141.04C590.183 147.867 585.788 153.157 580.327 156.912C574.951 160.581 568.124 162.416 559.847 162.416Z" fill="#064A45"/>
<path d="M657.43 162.416C649.579 162.416 642.923 161.093 637.462 158.448C632 155.717 627.35 152.219 623.51 147.952L636.31 135.024C642.368 141.851 649.835 145.264 658.71 145.264C663.488 145.264 667.03 144.283 669.334 142.32C671.638 140.357 672.79 137.755 672.79 134.512C672.79 132.037 672.107 129.989 670.742 128.368C669.376 126.661 666.603 125.509 662.422 124.912L653.59 123.76C644.118 122.565 637.163 119.707 632.726 115.184C628.374 110.661 626.198 104.645 626.198 97.136C626.198 93.1253 626.966 89.456 628.502 86.128C630.038 82.8 632.214 79.9413 635.03 77.552C637.931 75.1627 641.43 73.328 645.526 72.048C649.707 70.6827 654.443 70 659.734 70C666.475 70 672.406 71.0667 677.526 73.2C682.646 75.3333 687.04 78.448 690.71 82.544L677.782 95.6C675.648 93.1253 673.046 91.12 669.974 89.584C666.987 87.9627 663.19 87.152 658.582 87.152C654.23 87.152 650.987 87.92 648.854 89.456C646.72 90.992 645.654 93.1253 645.654 95.856C645.654 98.928 646.464 101.147 648.086 102.512C649.792 103.877 652.523 104.859 656.278 105.456L665.11 106.864C674.326 108.315 681.152 111.173 685.59 115.44C690.027 119.621 692.246 125.595 692.246 133.36C692.246 137.627 691.478 141.552 689.942 145.136C688.406 148.72 686.144 151.792 683.158 154.352C680.256 156.912 676.63 158.917 672.278 160.368C667.926 161.733 662.976 162.416 657.43 162.416Z" fill="#1FB177"/>
<path d="M737.433 162.416C732.313 162.416 727.747 161.605 723.737 159.984C719.726 158.277 716.313 155.931 713.497 152.944C710.766 149.872 708.675 146.16 707.225 141.808C705.859 137.456 705.177 132.592 705.177 127.216C705.177 121.925 705.859 117.147 707.225 112.88C708.59 108.528 710.595 104.816 713.241 101.744C715.971 98.672 719.299 96.3253 723.225 94.704C727.15 92.9973 731.63 92.144 736.665 92.144C742.211 92.144 746.947 93.0827 750.873 94.96C754.883 96.8373 758.126 99.3547 760.601 102.512C763.161 105.669 764.995 109.339 766.105 113.52C767.299 117.616 767.897 121.925 767.897 126.448V132.08H724.761V133.104C724.761 137.541 725.955 141.083 728.345 143.728C730.734 146.288 734.489 147.568 739.609 147.568C743.534 147.568 746.734 146.8 749.209 145.264C751.683 143.643 753.987 141.723 756.121 139.504L765.593 151.28C762.606 154.779 758.681 157.509 753.817 159.472C749.038 161.435 743.577 162.416 737.433 162.416ZM737.049 106.096C733.209 106.096 730.179 107.376 727.961 109.936C725.827 112.411 724.761 115.739 724.761 119.92V120.944H748.313V119.792C748.313 115.696 747.374 112.411 745.497 109.936C743.705 107.376 740.889 106.096 737.049 106.096Z" fill="#1FB177"/>
<path d="M783.324 160.88V93.68H802.268V105.072H803.036C804.23 101.573 806.321 98.544 809.308 95.984C812.294 93.424 816.433 92.144 821.724 92.144C828.636 92.144 833.841 94.448 837.34 99.056C840.924 103.664 842.716 110.235 842.716 118.768V160.88H823.772V120.304C823.772 115.952 823.089 112.752 821.724 110.704C820.358 108.571 817.926 107.504 814.428 107.504C812.892 107.504 811.398 107.717 809.948 108.144C808.497 108.485 807.174 109.083 805.98 109.936C804.87 110.789 803.974 111.856 803.292 113.136C802.609 114.331 802.268 115.739 802.268 117.36V160.88H783.324Z" fill="#1FB177"/>
<path d="M885.174 160.88C878.603 160.88 873.611 159.216 870.198 155.888C866.87 152.56 865.206 147.696 865.206 141.296V108.4H855.734V93.68H860.47C863.03 93.68 864.779 93.0827 865.718 91.888C866.656 90.608 867.126 88.816 867.126 86.512V75.504H884.15V93.68H897.462V108.4H884.15V146.16H896.438V160.88H885.174Z" fill="#1FB177"/>
<path d="M912.67 160.88V93.68H931.614V108.272H932.254C932.595 106.395 933.192 104.603 934.046 102.896C934.899 101.104 936.008 99.5253 937.374 98.16C938.824 96.7947 940.531 95.728 942.494 94.96C944.456 94.1067 946.76 93.68 949.406 93.68H952.734V111.344H947.998C942.451 111.344 938.312 112.069 935.582 113.52C932.936 114.971 931.614 117.659 931.614 121.584V160.88H912.67Z" fill="#1FB177"/>
<path d="M1008.43 93.68H1026.09L1000.24 171.248C998.532 176.453 996.1 180.293 992.943 182.768C989.871 185.243 985.433 186.48 979.631 186.48H967.855V171.76H980.527L982.831 164.336L959.279 93.68H978.095L987.951 125.04L992.815 144.496H993.583L998.575 125.04L1008.43 93.68Z" fill="#1FB177"/>
<mask id="mask0_945_338" style="mask-type:alpha" maskUnits="userSpaceOnUse" x="4" y="20" width="232" height="201">
<path d="M9.19981 93.6117C7.47888 96.5924 5.92848 99.6248 4.54558 102.698C2.3462 107.585 7.19928 110.775 11.9131 108.226C19.135 104.32 29.0505 101.002 40.6419 102.518C33.392 142.919 51.6001 185.307 89.1957 207.013C128.961 229.971 177.922 222.578 209.251 192.021C209.251 192.021 234.583 166.725 224.746 134.53C223.889 131.726 219.709 132.353 219.06 135.212C216.793 145.205 211.339 160.254 198.293 171.23C185.945 181.618 168.742 184.43 158.013 185.113C155.144 185.295 154.242 188.682 156.94 189.676C165.711 192.909 177.137 194.859 185.933 195.502C162.06 203.208 132.123 197.082 125.036 173.567C117.949 150.053 132.466 129.919 151.594 121.126C170.721 112.333 193.542 111.458 212.322 111.142C227.345 110.889 236.578 102.771 235.971 93.8007C235.364 84.8309 218.269 81.5141 212.725 80.3796C208.29 79.472 206.949 72.1709 204.993 62.2777C198.356 28.719 152.154 20.8216 152.069 20.8071C122.866 17.0691 93.1101 26.424 71.2846 46.5982C46.0171 53.0266 23.2658 69.2487 9.19981 93.6117Z" fill="#3394F5"/>
</mask>
<g mask="url(#mask0_945_338)">
<path d="M134.273 90.1475L250.947 96.5896L239.137 119.853L159.684 135.242L134.273 90.1475Z" fill="white"/>
<path d="M234.248 127.202L234.247 175.162L161.832 258.358L109.937 175.162L234.248 127.202Z" fill="#84E0BD"/>
<path d="M128.19 164.948L150.02 174.61L134.251 280.192L29.0534 202.169L128.19 164.948Z" fill="#58CC9E"/>
<path d="M101.348 131.306L75.9366 161.011L109.937 174.969L98.1269 259.432L35.1372 202.169L21.8953 127.727L101.348 131.306Z" fill="#1B9669"/>
<path d="M148.59 135.958L133.917 167.095L108.148 174.253L74.1484 160.653L103.496 131.664L51.5999 82.632L121.389 99.0952L148.59 135.958Z" fill="#84E0BD"/>
<path d="M123.178 5.32812L250.589 32.5264L250.589 100.169L128.546 97.6651L123.178 5.32812Z" fill="#1FB177"/>
<path d="M150.828 -41.1918L178.294 -2.18886L167.2 68.6743L108.863 49.348L63.4102 56.5714L150.828 -41.1918Z" fill="#1B9669"/>
<path d="M167.201 69.0317L153.958 148.127L119.958 100.885L110.653 49.7055L167.201 69.0317Z" fill="#58CC9E"/>
<path d="M61.2632 -3.97854L110.295 50.4216L118.169 98.0216L50.8832 82.6322L103.137 129.516L75.9369 160.653L24.758 180.337L-22.4843 132.022L61.2632 -3.97854Z" fill="#1FB177"/>
<circle cx="166.486" cy="68.6741" r="17.179" fill="#064A45"/>
<path fill-rule="evenodd" clip-rule="evenodd" d="M110.652 43.6211C114.21 43.6211 117.094 46.5053 117.094 50.0632C117.094 50.3471 117.073 50.6264 117.038 50.9006L149.66 61.5822C152.428 55.024 158.918 50.4211 166.484 50.4211C176.565 50.4211 184.737 58.5931 184.737 68.6737C184.737 78.7544 176.565 86.9264 166.484 86.9264C156.403 86.9264 148.231 78.7544 148.231 68.6737C148.231 66.916 148.481 65.2165 148.944 63.608L116.409 52.9543C115.574 54.6133 114.045 55.8615 112.201 56.3166L118.622 92.4339C119.053 92.343 119.5 92.2948 119.958 92.2948C123.515 92.2948 126.4 95.179 126.4 98.7369C126.4 102.295 123.515 105.179 119.958 105.179C116.4 105.179 113.515 102.295 113.515 98.7369C113.515 98.4932 113.53 98.2529 113.557 98.0162L61.3187 86.4077C60.9086 87.5407 60.3195 88.5878 59.5851 89.5148L98.6167 125.316C99.7394 124.364 101.192 123.79 102.779 123.79C106.336 123.79 109.221 126.674 109.221 130.232C109.221 133.79 106.336 136.674 102.779 136.674C101.601 136.674 100.499 136.356 99.5491 135.805L80.9575 156.568C82.059 157.724 82.7365 159.288 82.7365 161.011C82.7365 161.717 82.6208 162.396 82.4107 163.032L102.238 170.799C103.737 168.769 106.146 167.453 108.863 167.453C113.409 167.453 117.094 171.138 117.094 175.684C117.094 179.931 113.878 183.425 109.749 183.867L103.841 225.226L101.715 224.922L107.586 183.817C103.646 183.203 100.631 179.796 100.631 175.684C100.631 174.63 100.831 173.623 101.193 172.696L81.3965 164.941C80.2184 166.468 78.372 167.453 76.2944 167.453C72.7365 167.453 69.8522 164.569 69.8522 161.011C69.8522 157.453 72.7365 154.569 76.2944 154.569C77.3527 154.569 78.3507 154.825 79.2316 155.277L97.8953 134.431C96.9244 133.303 96.3365 131.837 96.3365 130.232C96.3365 129.036 96.663 127.917 97.2305 126.957L58.0955 91.0617C56.156 92.7225 53.6374 93.7264 50.8838 93.7264C44.7563 93.7264 39.7891 88.7591 39.7891 82.6316C39.7891 76.5042 44.7563 71.5369 50.8838 71.5369C57.0113 71.5369 61.9786 76.5042 61.9786 82.6316C61.9786 83.2078 61.9339 83.7736 61.8492 84.3261L114.148 95.9486C114.685 94.8311 115.536 93.8929 116.585 93.2469L110.048 56.476C106.774 56.1714 104.21 53.4174 104.21 50.0632C104.21 46.5053 107.094 43.6211 110.652 43.6211ZM166.484 52.5685C157.589 52.5685 150.379 59.779 150.379 68.6737C150.379 77.5684 157.589 84.779 166.484 84.779C175.379 84.779 182.589 77.5684 182.589 68.6737C182.589 59.779 175.379 52.5685 166.484 52.5685Z" fill="white"/>
<path d="M166.084 57.2217C172.188 57.2217 177.137 62.1701 177.137 68.2743C177.137 70.1879 176.65 71.988 175.794 73.5576C175.794 73.5576 173.552 67.9585 166.084 67.9585C158.615 67.9585 156.373 73.5576 156.373 73.5576C155.518 71.988 155.031 70.1879 155.031 68.2743C155.031 62.1701 159.98 57.2217 166.084 57.2217Z" fill="white"/>
</g>
<path d="M9.19981 93.6117C7.47888 96.5924 5.92848 99.6248 4.54558 102.698C2.3462 107.585 7.19928 110.775 11.9131 108.226C19.135 104.32 29.0505 101.002 40.6419 102.518C33.392 142.919 51.6001 185.307 89.1957 207.013C128.961 229.971 177.922 222.578 209.251 192.021C209.251 192.021 234.583 166.725 224.746 134.53C223.889 131.726 219.709 132.353 219.06 135.212C216.793 145.205 211.339 160.254 198.293 171.23C185.945 181.618 168.742 184.43 158.013 185.113C155.144 185.295 154.242 188.682 156.94 189.676C165.711 192.909 177.137 194.859 185.933 195.502C162.06 203.208 132.123 197.082 125.036 173.567C117.949 150.053 132.466 129.919 151.594 121.126C170.721 112.333 193.542 111.458 212.322 111.142C227.345 110.889 236.578 102.771 235.971 93.8007C235.364 84.8309 218.269 81.5141 212.725 80.3796C208.29 79.472 206.949 72.1709 204.993 62.2777C198.356 28.719 152.154 20.8216 152.069 20.8071C122.866 17.0691 93.1101 26.424 71.2846 46.5982C46.0171 53.0266 23.2658 69.2487 9.19981 93.6117Z" fill="#1FB177"/>
<path d="M235.945 95.7612C235.188 103.921 226.241 110.908 212.321 111.142C193.578 111.458 170.807 112.33 151.702 121.077L134.273 90.1475L235.945 95.7612Z" fill="#84E0BD"/>
<path d="M219.061 135.212C219.71 132.353 223.889 131.726 224.746 134.53C234.582 166.725 209.251 192.022 209.251 192.022C190.105 210.695 164.375 220.717 138.183 220.449L109.936 175.162L124.058 169.713C124.321 170.986 124.646 172.272 125.036 173.568C132.123 197.082 162.06 203.209 185.933 195.502C177.138 194.859 165.712 192.91 156.94 189.676C154.242 188.682 155.144 185.296 158.013 185.113C168.742 184.431 185.946 181.619 198.293 171.231C211.34 160.254 216.794 145.205 219.061 135.212Z" fill="white"/>
<path d="M123.552 166.689C123.846 168.943 124.336 171.239 125.038 173.567C128.34 184.525 136.605 191.706 146.905 195.472L143.186 220.375C124.907 221.101 106.211 216.836 89.1972 207.013C80.2779 201.863 72.4508 195.549 65.7949 188.374L123.552 166.689Z" fill="#B9F0DA"/>
<path d="M101.348 131.306L75.9372 161.011L109.938 174.969L104.452 214.2C99.2587 212.267 94.1562 209.877 89.1968 207.013C59.6496 189.954 42.0778 160.12 39.4277 128.516L101.348 131.306Z" fill="#1B9669"/>
<path d="M121.391 99.095L141.89 126.876C128.88 136.544 120.378 152.062 124.084 169.826L108.15 174.253L74.1496 160.653L103.498 131.663L51.6016 82.6318L121.391 99.095Z" fill="#84E0BD"/>
<path d="M124.1 21.1751C133.294 19.7579 142.711 19.6093 152.071 20.8074C152.156 20.8219 198.358 28.7197 204.994 62.2785C206.951 72.1715 208.292 79.4725 212.727 80.3801C218.271 81.5146 235.365 84.8315 235.973 93.8012C236.114 95.8918 235.72 97.9356 234.844 99.8449L128.547 97.6653L124.1 21.1751Z" fill="#1FB177"/>
<path d="M75.9407 42.5568C97.2379 25.1902 124.892 17.3284 152.069 20.807C152.108 20.8138 162.186 22.5377 173.601 27.7818L167.2 68.6741L108.863 49.3478L63.4102 56.5707L75.9407 42.5568Z" fill="#1B9669"/>
<path d="M167.2 69.0319L158.973 118.168C156.465 119.039 154 120.02 151.594 121.126C147.387 123.06 143.403 125.542 139.824 128.488L119.958 100.885L110.652 49.7056L167.2 69.0319Z" fill="#58CC9E"/>
<path d="M110.294 50.4219L118.168 98.022L50.8831 82.6325L103.136 129.517L75.9365 160.654L52.1861 169.788C40.7105 149.571 36.479 125.717 40.6419 102.519C29.0507 101.002 19.1351 104.32 11.9131 108.226C7.19938 110.776 2.34631 107.585 4.5455 102.698C5.9284 99.6256 7.47861 96.5926 9.19953 93.6119C23.2655 69.2491 46.0171 53.0274 71.2845 46.599C77.8959 40.4879 85.2355 35.3705 93.0665 31.3081L110.294 50.4219Z" fill="#1FB177"/>
<circle cx="166.486" cy="68.6741" r="17.179" fill="#064A45"/>
<path fill-rule="evenodd" clip-rule="evenodd" d="M110.652 43.6211C114.21 43.6211 117.094 46.5053 117.094 50.0632C117.094 50.3471 117.073 50.6264 117.038 50.9006L149.66 61.5822C152.428 55.024 158.918 50.4211 166.484 50.4211C176.565 50.4211 184.737 58.5931 184.737 68.6737C184.737 78.7544 176.565 86.9264 166.484 86.9264C156.403 86.9264 148.231 78.7544 148.231 68.6737C148.231 66.916 148.481 65.2165 148.944 63.608L116.409 52.9543C115.574 54.6133 114.045 55.8615 112.201 56.3166L118.622 92.4339C119.053 92.343 119.5 92.2948 119.958 92.2948C123.515 92.2948 126.4 95.179 126.4 98.7369C126.4 102.295 123.515 105.179 119.958 105.179C116.4 105.179 113.515 102.295 113.515 98.7369C113.515 98.4932 113.53 98.2529 113.557 98.0162L61.3187 86.4077C60.9086 87.5407 60.3195 88.5878 59.5851 89.5148L98.6167 125.316C99.7394 124.364 101.192 123.79 102.779 123.79C106.336 123.79 109.221 126.674 109.221 130.232C109.221 133.79 106.336 136.674 102.779 136.674C101.601 136.674 100.499 136.356 99.5491 135.805L80.9575 156.568C82.059 157.724 82.7365 159.288 82.7365 161.011C82.7365 161.717 82.6208 162.396 82.4107 163.032L102.238 170.799C103.737 168.769 106.146 167.453 108.863 167.453C113.409 167.453 117.094 171.138 117.094 175.684C117.094 179.931 113.878 183.425 109.749 183.867L105.368 214.536C104.679 214.288 103.993 214.03 103.308 213.766L107.586 183.817C103.646 183.203 100.631 179.796 100.631 175.684C100.631 174.63 100.831 173.623 101.193 172.696L81.3965 164.941C80.2184 166.468 78.372 167.453 76.2944 167.453C72.7365 167.453 69.8522 164.569 69.8522 161.011C69.8522 157.453 72.7365 154.569 76.2944 154.569C77.3527 154.569 78.3507 154.825 79.2316 155.277L97.8953 134.431C96.9244 133.303 96.3365 131.837 96.3365 130.232C96.3365 129.036 96.663 127.917 97.2305 126.957L58.0955 91.0617C56.156 92.7225 53.6374 93.7264 50.8838 93.7264C44.7563 93.7264 39.7891 88.7591 39.7891 82.6316C39.7891 76.5042 44.7563 71.5369 50.8838 71.5369C57.0113 71.5369 61.9786 76.5042 61.9786 82.6316C61.9786 83.2078 61.9339 83.7736 61.8492 84.3261L114.148 95.9486C114.685 94.8311 115.536 93.8929 116.585 93.2469L110.048 56.476C106.774 56.1714 104.21 53.4174 104.21 50.0632C104.21 46.5053 107.094 43.6211 110.652 43.6211ZM166.484 52.5685C157.589 52.5685 150.379 59.779 150.379 68.6737C150.379 77.5684 157.589 84.779 166.484 84.779C175.379 84.779 182.589 77.5684 182.589 68.6737C182.589 59.779 175.379 52.5685 166.484 52.5685Z" fill="white"/>
<path d="M166.084 57.2217C172.188 57.2217 177.137 62.1701 177.137 68.2743C177.137 70.1879 176.65 71.988 175.794 73.5576C175.794 73.5576 173.552 67.9585 166.084 67.9585C158.615 67.9585 156.373 73.5576 156.373 73.5576C155.518 71.988 155.031 70.1879 155.031 68.2743C155.031 62.1701 159.98 57.2217 166.084 57.2217Z" fill="white"/>
</svg>
